<svg width="45" height="45" viewBox="0 0 45 45" fill="none" xmlns="http://www.w3.org/2000/svg">
<rect width="45" height="45" rx="15" fill="white"/>
<path d="M26.8984 33.2578C26.2266 33.2578 25.5938 33.1172 25 32.8359C24.3906 32.5547 23.9141 32.1406 23.5703 31.5938C23.2266 31.0469 23.0547 30.4219 23.0547 29.7188C23.0547 28.5 23.5234 27.5625 24.4609 26.9062C25.4141 26.2344 26.75 25.8984 28.4688 25.8984H31.2812V25.7344C31.2812 24.7344 31.0312 24.0078 30.5312 23.5547C30.0469 23.0859 29.2578 22.8516 28.1641 22.8516C27.6016 22.8516 27.0938 22.8984 26.6406 22.9922C26.1875 23.0703 25.6562 23.2109 25.0469 23.4141L24.7422 23.4609C24.5078 23.4609 24.2969 23.375 24.1094 23.2031C23.9375 23.0156 23.8516 22.7969 23.8516 22.5469C23.8516 22.1094 24.0625 21.8047 24.4844 21.6328C25.7969 21.0703 27.1484 20.7891 28.5391 20.7891C29.6172 20.7891 30.5391 21.0078 31.3047 21.4453C32.0234 21.8672 32.5625 22.4297 32.9219 23.1328C33.2812 23.8203 33.4609 24.5859 33.4609 25.4297V32.0625C33.4609 32.3594 33.3516 32.6172 33.1328 32.8359C32.9141 33.0391 32.6562 33.1406 32.3594 33.1406C32.0625 33.1406 31.8047 33.0391 31.5859 32.8359C31.3828 32.6172 31.2812 32.3594 31.2812 32.0625V31.5C30.1562 32.6719 28.6953 33.2578 26.8984 33.2578ZM27.6953 31.3359C28.3672 31.3359 29.0156 31.1797 29.6406 30.8672C30.2812 30.5391 30.8281 30.1172 31.2812 29.6016V27.6562H28.75C26.4062 27.6562 25.2344 28.2656 25.2344 29.4844C25.2344 30.7188 26.0547 31.3359 27.6953 31.3359Z" fill="black"/>
<mask id="path-3-outside-1_28_26" maskUnits="userSpaceOnUse" x="10" y="8" width="18" height="20" fill="black">
<rect fill="white" x="10" y="8" width="18" height="20"/>
<path d="M19.7031 26.6016C19.1693 26.6016 18.9023 26.3216 18.9023 25.7617C18.9023 25.3581 19.3776 25.0521 20.3281 24.8438C23.5052 24.1276 25.0938 22.6432 25.0938 20.3906C25.0938 18.8411 24.3646 17.6758 22.9062 16.8945L22.8086 17.1289C22.0013 18.6393 21.0964 19.9805 20.0938 21.1523C19.1042 22.3242 18.0885 23.2422 17.0469 23.9062C16.0052 24.5573 15.0156 24.8828 14.0781 24.8828C13.5182 24.8828 13.0104 24.7396 12.5547 24.4531C12.112 24.1667 11.7604 23.7695 11.5 23.2617C11.2526 22.7539 11.1289 22.181 11.1289 21.543C11.1289 20.0846 11.5651 18.8151 12.4375 17.7344C13.3229 16.6406 14.5404 15.8138 16.0898 15.2539L16.1484 13.9453L16.207 13.0664H12.457C11.793 13.0664 11.4609 12.793 11.4609 12.2461C11.4609 11.7253 11.793 11.4648 12.457 11.4648H16.3047C16.3438 10.6966 16.4023 10.1953 16.4805 9.96094C16.5846 9.54427 16.8581 9.33594 17.3008 9.33594C17.8477 9.33594 18.1211 9.58333 18.1211 10.0781L18.1016 10.2344L17.9648 11.4648H25.5625C26.2266 11.4648 26.5586 11.7318 26.5586 12.2656C26.5586 12.7995 26.2266 13.0664 25.5625 13.0664H17.8281V13.125L17.7305 14.8242C18.3164 14.7331 18.9544 14.6875 19.6445 14.6875C21.0638 14.6875 22.3138 14.9154 23.3945 15.3711C24.4753 15.8138 25.3151 16.4648 25.9141 17.3242C26.513 18.1836 26.8125 19.2122 26.8125 20.4102C26.8125 22.7018 25.6862 24.4271 23.4336 25.5859C22.1185 26.263 20.875 26.6016 19.7031 26.6016ZM14.2148 23.3203C14.8268 23.3203 15.6081 23.0339 16.5586 22.4609C16.2982 21.0677 16.1289 19.1862 16.0508 16.8164C13.8503 17.8451 12.75 19.4141 12.75 21.5234C12.75 22.7214 13.2383 23.3203 14.2148 23.3203ZM18.0039 21.3086C19.4102 19.9414 20.6016 18.2878 21.5781 16.3477C20.9141 16.1654 20.2565 16.0742 19.6055 16.0742C18.9674 16.0742 18.3294 16.1458 17.6914 16.2891V16.7188C17.6914 18.0599 17.7956 19.5898 18.0039 21.3086Z"/>
</mask>
<path d="M19.7031 26.6016C19.1693 26.6016 18.9023 26.3216 18.9023 25.7617C18.9023 25.3581 19.3776 25.0521 20.3281 24.8438C23.5052 24.1276 25.0938 22.6432 25.0938 20.3906C25.0938 18.8411 24.3646 17.6758 22.9062 16.8945L22.8086 17.1289C22.0013 18.6393 21.0964 19.9805 20.0938 21.1523C19.1042 22.3242 18.0885 23.2422 17.0469 23.9062C16.0052 24.5573 15.0156 24.8828 14.0781 24.8828C13.5182 24.8828 13.0104 24.7396 12.5547 24.4531C12.112 24.1667 11.7604 23.7695 11.5 23.2617C11.2526 22.7539 11.1289 22.181 11.1289 21.543C11.1289 20.0846 11.5651 18.8151 12.4375 17.7344C13.3229 16.6406 14.5404 15.8138 16.0898 15.2539L16.1484 13.9453L16.207 13.0664H12.457C11.793 13.0664 11.4609 12.793 11.4609 12.2461C11.4609 11.7253 11.793 11.4648 12.457 11.4648H16.3047C16.3438 10.6966 16.4023 10.1953 16.4805 9.96094C16.5846 9.54427 16.8581 9.33594 17.3008 9.33594C17.8477 9.33594 18.1211 9.58333 18.1211 10.0781L18.1016 10.2344L17.9648 11.4648H25.5625C26.2266 11.4648 26.5586 11.7318 26.5586 12.2656C26.5586 12.7995 26.2266 13.0664 25.5625 13.0664H17.8281V13.125L17.7305 14.8242C18.3164 14.7331 18.9544 14.6875 19.6445 14.6875C21.0638 14.6875 22.3138 14.9154 23.3945 15.3711C24.4753 15.8138 25.3151 16.4648 25.9141 17.3242C26.513 18.1836 26.8125 19.2122 26.8125 20.4102C26.8125 22.7018 25.6862 24.4271 23.4336 25.5859C22.1185 26.263 20.875 26.6016 19.7031 26.6016ZM14.2148 23.3203C14.8268 23.3203 15.6081 23.0339 16.5586 22.4609C16.2982 21.0677 16.1289 19.1862 16.0508 16.8164C13.8503 17.8451 12.75 19.4141 12.75 21.5234C12.75 22.7214 13.2383 23.3203 14.2148 23.3203ZM18.0039 21.3086C19.4102 19.9414 20.6016 18.2878 21.5781 16.3477C20.9141 16.1654 20.2565 16.0742 19.6055 16.0742C18.9674 16.0742 18.3294 16.1458 17.6914 16.2891V16.7188C17.6914 18.0599 17.7956 19.5898 18.0039 21.3086Z" fill="black"/>
<path d="M20.3281 24.8438L20.5422 25.8206L20.548 25.8193L20.3281 24.8438ZM22.9062 16.8945L23.3785 16.0131L22.407 15.4926L21.9832 16.5099L22.9062 16.8945ZM22.8086 17.1289L23.6905 17.6003L23.7132 17.5579L23.7317 17.5135L22.8086 17.1289ZM20.0938 21.1523L19.3339 20.5022L19.3297 20.5072L20.0938 21.1523ZM17.0469 23.9062L17.5769 24.7543L17.5844 24.7495L17.0469 23.9062ZM12.5547 24.4531L12.0114 25.2928L12.0225 25.2998L12.5547 24.4531ZM11.5 23.2617L10.601 23.6997L10.6055 23.7089L10.6102 23.718L11.5 23.2617ZM12.4375 17.7344L11.6603 17.1052L11.6594 17.1063L12.4375 17.7344ZM16.0898 15.2539L16.4297 16.1944L17.0589 15.967L17.0888 15.2986L16.0898 15.2539ZM16.1484 13.9453L15.1507 13.8788L15.1499 13.8897L15.1494 13.9006L16.1484 13.9453ZM16.207 13.0664L17.2048 13.1329L17.2759 12.0664H16.207V13.0664ZM16.3047 11.4648V12.4648H17.2551L17.3034 11.5156L16.3047 11.4648ZM16.4805 9.96094L17.4292 10.2772L17.4413 10.2407L17.4506 10.2035L16.4805 9.96094ZM18.1211 10.0781L19.1134 10.2022L19.1211 10.1404V10.0781H18.1211ZM18.1016 10.2344L17.1092 10.1103L17.1077 10.1239L18.1016 10.2344ZM17.9648 11.4648L16.971 11.3544L16.8476 12.4648H17.9648V11.4648ZM17.8281 13.0664V12.0664H16.8281V13.0664H17.8281ZM17.8281 13.125L18.8265 13.1824L18.8281 13.1537V13.125H17.8281ZM17.7305 14.8242L16.7321 14.7668L16.6611 16.0026L17.8842 15.8123L17.7305 14.8242ZM23.3945 15.3711L23.006 16.2926L23.0155 16.2965L23.3945 15.3711ZM23.4336 25.5859L22.9761 24.6967L22.9758 24.6969L23.4336 25.5859ZM16.5586 22.4609L17.0748 23.3174L17.6691 22.9592L17.5416 22.2772L16.5586 22.4609ZM16.0508 16.8164L17.0502 16.7835L17.0003 15.2687L15.6273 15.9105L16.0508 16.8164ZM18.0039 21.3086L17.0112 21.4289L17.254 23.4324L18.701 22.0256L18.0039 21.3086ZM21.5781 16.3477L22.4714 16.7973L23.0204 15.7066L21.8428 15.3833L21.5781 16.3477ZM17.6914 16.2891L17.4724 15.3133L16.6914 15.4887V16.2891H17.6914ZM19.7031 25.6016C19.6542 25.6016 19.6534 25.5948 19.6828 25.6051C19.7175 25.6172 19.7735 25.6461 19.8263 25.7015C19.9359 25.8165 19.9023 25.8991 19.9023 25.7617H17.9023C17.9023 26.1842 18.0023 26.6868 18.3788 27.0817C18.7638 27.4855 19.2696 27.6016 19.7031 27.6016V25.6016ZM19.9023 25.7617C19.9023 25.8707 19.8665 25.9679 19.8223 26.0338C19.7853 26.089 19.7609 26.0955 19.8001 26.0703C19.8905 26.0121 20.1118 25.9149 20.5422 25.8206L20.114 23.8669C19.5939 23.9809 19.1023 24.1409 18.7174 24.3887C18.3193 24.6451 17.9023 25.0937 17.9023 25.7617H19.9023ZM20.548 25.8193C22.2298 25.4402 23.6119 24.8334 24.5851 23.924C25.5898 22.9852 26.0938 21.7826 26.0938 20.3906H24.0938C24.0938 21.2512 23.8034 21.9172 23.2196 22.4627C22.6042 23.0377 21.6035 23.5312 20.1082 23.8682L20.548 25.8193ZM26.0938 20.3906C26.0938 19.4528 25.8709 18.5853 25.3946 17.8241C24.9204 17.0663 24.23 16.4692 23.3785 16.0131L22.434 17.776C23.0408 18.1011 23.4441 18.4774 23.6991 18.8849C23.952 19.289 24.0938 19.779 24.0938 20.3906H26.0938ZM21.9832 16.5099L21.8855 16.7443L23.7317 17.5135L23.8293 17.2791L21.9832 16.5099ZM21.9267 16.6575C21.1498 18.111 20.2846 19.391 19.3339 20.5022L20.8536 21.8024C21.9081 20.5699 22.8528 19.1676 23.6905 17.6003L21.9267 16.6575ZM19.3297 20.5072C18.3902 21.6198 17.4483 22.4644 16.5093 23.063L17.5844 24.7495C18.7288 24.0199 19.8182 23.0287 20.8578 21.7975L19.3297 20.5072ZM16.5169 23.0583C15.5858 23.6402 14.7784 23.8828 14.0781 23.8828V25.8828C15.2528 25.8828 16.4246 25.4744 17.5769 24.7542L16.5169 23.0583ZM14.0781 23.8828C13.6986 23.8828 13.3766 23.7886 13.0869 23.6065L12.0225 25.2998C12.6443 25.6906 13.3379 25.8828 14.0781 25.8828V23.8828ZM13.0979 23.6136C12.8143 23.43 12.5771 23.1705 12.3898 22.8054L10.6102 23.718C10.9438 24.3685 11.4096 24.9033 12.0114 25.2927L13.0979 23.6136ZM12.399 22.8237C12.2262 22.4691 12.1289 22.049 12.1289 21.543H10.1289C10.1289 22.313 10.279 23.0387 10.601 23.6997L12.399 22.8237ZM12.1289 21.543C12.1289 20.3009 12.4944 19.256 13.2156 18.3625L11.6594 17.1063C10.6359 18.3742 10.1289 19.8684 10.1289 21.543H12.1289ZM13.2147 18.3636C13.9671 17.4342 15.022 16.703 16.4297 16.1944L15.75 14.3134C14.0587 14.9246 12.6787 15.8471 11.6603 17.1052L13.2147 18.3636ZM17.0888 15.2986L17.1474 13.99L15.1494 13.9006L15.0908 15.2092L17.0888 15.2986ZM17.1462 14.0118L17.2048 13.1329L15.2092 12.9999L15.1507 13.8788L17.1462 14.0118ZM16.207 12.0664H12.457V14.0664H16.207V12.0664ZM12.457 12.0664C12.3564 12.0664 12.3037 12.0557 12.286 12.0508C12.2705 12.0466 12.3004 12.0521 12.3457 12.0894C12.368 12.1078 12.39 12.1306 12.4092 12.1571C12.4285 12.1835 12.4416 12.2088 12.4501 12.2298C12.4668 12.271 12.4609 12.2836 12.4609 12.2461H10.4609C10.4609 12.7304 10.6173 13.257 11.0743 13.6333C11.494 13.9789 12.013 14.0664 12.457 14.0664V12.0664ZM12.4609 12.2461C12.4609 12.2206 12.4651 12.2447 12.4435 12.2954C12.4194 12.3522 12.3778 12.4073 12.3271 12.447C12.2814 12.4828 12.2537 12.4865 12.2742 12.4812C12.2963 12.4754 12.3531 12.4648 12.457 12.4648V10.4648C12.0216 10.4648 11.5106 10.5456 11.0928 10.8733C10.6288 11.2373 10.4609 11.758 10.4609 12.2461H12.4609ZM12.457 12.4648H16.3047V10.4648H12.457V12.4648ZM17.3034 11.5156C17.3223 11.1433 17.3454 10.8497 17.3712 10.6288C17.384 10.5186 17.3968 10.4333 17.4087 10.3695C17.4212 10.3023 17.4295 10.276 17.4292 10.2772L15.5318 9.64471C15.403 10.0312 15.3436 10.6735 15.306 11.4141L17.3034 11.5156ZM17.4506 10.2035C17.4566 10.1794 17.4587 10.1839 17.4462 10.2046C17.4325 10.2274 17.4075 10.2588 17.3697 10.2876C17.2878 10.3501 17.2349 10.3359 17.3008 10.3359V8.33594C16.9239 8.33594 16.513 8.42598 16.1576 8.69676C15.799 8.96997 15.6034 9.346 15.5103 9.7184L17.4506 10.2035ZM17.3008 10.3359C17.4434 10.3359 17.3637 10.3704 17.2451 10.263C17.185 10.2087 17.149 10.1467 17.1315 10.0991C17.1161 10.0573 17.1211 10.044 17.1211 10.0781H19.1211C19.1211 9.64933 18.998 9.15188 18.5869 8.77995C18.1949 8.42521 17.705 8.33594 17.3008 8.33594V10.3359ZM17.1288 9.95409L17.1093 10.1103L19.0938 10.3584L19.1134 10.2022L17.1288 9.95409ZM17.1077 10.1239L16.971 11.3544L18.9587 11.5753L19.0954 10.3448L17.1077 10.1239ZM17.9648 12.4648H25.5625V10.4648H17.9648V12.4648ZM25.5625 12.4648C25.6648 12.4648 25.7195 12.4755 25.7394 12.4808C25.7574 12.4856 25.7286 12.481 25.683 12.4444C25.6604 12.4262 25.6376 12.4032 25.6171 12.3758C25.5967 12.3484 25.5823 12.3216 25.5726 12.2983C25.5536 12.2524 25.5586 12.2341 25.5586 12.2656H27.5586C27.5586 11.7797 27.3967 11.2559 26.9361 10.8857C26.5172 10.5489 26.0022 10.4648 25.5625 10.4648V12.4648ZM25.5586 12.2656C25.5586 12.2972 25.5536 12.2789 25.5726 12.233C25.5823 12.2097 25.5967 12.1828 25.6171 12.1555C25.6376 12.1281 25.6604 12.105 25.683 12.0868C25.7286 12.0502 25.7574 12.0456 25.7394 12.0504C25.7195 12.0558 25.6648 12.0664 25.5625 12.0664V14.0664C26.0022 14.0664 26.5172 13.9823 26.9361 13.6456C27.3967 13.2753 27.5586 12.7516 27.5586 12.2656H25.5586ZM25.5625 12.0664H17.8281V14.0664H25.5625V12.0664ZM16.8281 13.0664V13.125H18.8281V13.0664H16.8281ZM16.8298 13.0676L16.7321 14.7668L18.7288 14.8816L18.8265 13.1824L16.8298 13.0676ZM17.8842 15.8123C18.4118 15.7303 18.9978 15.6875 19.6445 15.6875V13.6875C18.9111 13.6875 18.221 13.7359 17.5768 13.8361L17.8842 15.8123ZM19.6445 15.6875C20.9577 15.6875 22.0712 15.8983 23.006 16.2925L23.7831 14.4497C22.5564 13.9324 21.1699 13.6875 19.6445 13.6875V15.6875ZM23.0155 16.2965C23.9393 16.6749 24.6171 17.2123 25.0937 17.896L26.7345 16.7524C26.0131 15.7174 25.0112 14.9527 23.7736 14.4457L23.0155 16.2965ZM25.0937 17.896C25.5595 18.5643 25.8125 19.3863 25.8125 20.4102H27.8125C27.8125 19.0381 27.4666 17.8029 26.7345 16.7524L25.0937 17.896ZM25.8125 20.4102C25.8125 21.3844 25.5757 22.1941 25.1304 22.8762C24.6815 23.5638 23.9833 24.1785 22.9761 24.6967L23.8911 26.4752C25.1364 25.8345 26.1277 25.0072 26.8051 23.9695C27.4861 22.9264 27.8125 21.7276 27.8125 20.4102H25.8125ZM22.9758 24.6969C21.7661 25.3197 20.6795 25.6016 19.7031 25.6016V27.6016C21.0705 27.6016 22.4709 27.2063 23.8913 26.475L22.9758 24.6969ZM14.2148 24.3203C15.1037 24.3203 16.0772 23.9187 17.0748 23.3174L16.0424 21.6045C15.139 22.149 14.55 22.3203 14.2148 22.3203V24.3203ZM17.5416 22.2772C17.2946 20.9557 17.1276 19.1314 17.0502 16.7835L15.0513 16.8494C15.1302 19.2409 15.3018 21.1797 15.5756 22.6447L17.5416 22.2772ZM15.6273 15.9105C14.4102 16.4794 13.4305 17.2292 12.7564 18.1905C12.0765 19.1601 11.75 20.285 11.75 21.5234H13.75C13.75 20.6525 13.9736 19.9382 14.3939 19.3388C14.8201 18.731 15.4908 18.182 16.4743 17.7223L15.6273 15.9105ZM11.75 21.5234C11.75 22.2326 11.8904 22.9501 12.3411 23.503C12.8237 24.0949 13.5123 24.3203 14.2148 24.3203V22.3203C13.9408 22.3203 13.897 22.2462 13.8913 22.2392C13.8537 22.1931 13.75 22.0122 13.75 21.5234H11.75ZM18.701 22.0256C20.1951 20.5729 21.4501 18.8262 22.4714 16.7973L20.6849 15.898C19.753 17.7493 18.6252 19.3099 17.3068 20.5916L18.701 22.0256ZM21.8428 15.3833C21.0975 15.1787 20.351 15.0742 19.6055 15.0742V17.0742C20.1621 17.0742 20.7306 17.152 21.3134 17.312L21.8428 15.3833ZM19.6055 15.0742C18.8919 15.0742 18.1805 15.1544 17.4724 15.3133L17.9104 17.2648C18.4784 17.1373 19.0429 17.0742 19.6055 17.0742V15.0742ZM16.6914 16.2891V16.7188H18.6914V16.2891H16.6914ZM16.6914 16.7188C16.6914 18.1097 16.7993 19.6811 17.0112 21.4289L18.9966 21.1883C18.7918 19.4986 18.6914 18.0101 18.6914 16.7188H16.6914Z" fill="white" mask="url(#path-3-outside-1_28_26)"/>
</svg>
