<svg width="80" height="40" viewBox="0 0 80 40" fill="none" xmlns="http://www.w3.org/2000/svg">
<path d="M42 40H10.4C4.48 40 0 34.8 0 29.9593V1C0 0.447715 0.447716 0 1 0H7.96C8.51229 0 8.96 0.447716 8.96 1V24.8C8.96 29.28 11.92 32 16.16 32H37.28C40.88 32 42.72 28.08 37.28 24C32.08 20.1 25.12 18.4 25.12 10.4C25.12 5.04 28.64 0 37.28 0H79C79.5523 0 80 0.447715 80 0.999999V5.88C80 6.43228 79.5523 6.88 79 6.88H73.48C72.9277 6.88 72.48 7.32772 72.48 7.88V39C72.48 39.5523 72.0323 40 71.48 40H63.88C63.3277 40 62.88 39.5523 62.88 39V8.04C62.88 7.48772 62.4323 7.04 61.88 7.04H43.12C34.72 7.04 32.48 11.52 43.12 18.4C51.5418 23.8457 52 26.24 52 29.92C52 33.6 48.64 40 42 40Z" fill="white"/>
</svg>
