<svg width="350" height="350" viewBox="0 0 350 350" fill="none" xmlns="http://www.w3.org/2000/svg">
<path fill-rule="evenodd" clip-rule="evenodd" d="M350 100C350 44.7715 305.228 0 250 0H100C44.7715 0 0 44.7715 0 100V250C0 305.228 44.7715 350 100 350H250C305.228 350 350 305.228 350 250V100ZM175 300C244.036 300 300 244.036 300 175C300 105.964 244.036 50 175 50C173.244 50 173.095 52.6641 174.796 53.0981C218.03 64.128 250 103.331 250 150C250 205.228 205.228 250 150 250C103.331 250 64.128 218.03 53.0981 174.796C52.6641 173.095 50 173.244 50 175C50 244.036 105.964 300 175 300ZM150.002 85C149.999 110.98 146.614 127.203 136.91 136.907C127.206 146.611 110.983 149.995 85.0034 149.998C110.983 150.001 127.206 153.386 136.91 163.09C146.614 172.794 149.999 189.017 150.002 214.997C150.005 189.017 153.389 172.794 163.093 163.09C172.797 153.386 189.02 150.001 215 149.998C189.02 149.995 172.797 146.611 163.093 136.907C153.389 127.203 150.005 110.98 150.002 85Z" fill="white"/>
</svg>
