<svg width="250" height="250" viewBox="0 0 250 250" fill="none" xmlns="http://www.w3.org/2000/svg">
<path fill-rule="evenodd" clip-rule="evenodd" d="M125 250C194.036 250 250 194.036 250 125C250 55.9644 194.036 0 125 0C120.541 0 116.137 0.233443 111.799 0.688772C161.467 6.52689 200 48.7635 200 100C200 155.228 155.229 200 100 200C48.7635 200 6.52686 161.467 0.688784 111.799C0.233447 116.137 0 120.541 0 125C0 194.036 55.9644 250 125 250Z" fill="white"/>
<path fill-rule="evenodd" clip-rule="evenodd" d="M100.002 35C99.9987 60.9797 96.6141 77.2027 86.9101 86.9067C77.2061 96.6108 60.9831 99.9954 35.0034 99.9983C60.9831 100.001 77.2061 103.386 86.9101 113.09C96.6142 122.794 99.9988 139.017 100.002 164.997C100.005 139.017 103.389 122.794 113.093 113.09C122.797 103.386 139.02 100.001 165 99.9983C139.02 99.9954 122.797 96.6108 113.093 86.9067C103.389 77.2027 100.005 60.9797 100.002 35ZM100.002 156.523C100.692 135.386 104.228 121.587 112.909 112.906C121.59 104.225 135.389 100.689 156.527 99.9983C135.389 99.308 121.59 95.7716 112.909 87.0906C104.228 78.4095 100.692 64.6109 100.002 43.4733C99.3114 64.6109 95.775 78.4095 87.0939 87.0906C78.4129 95.7716 64.6143 99.308 43.4767 99.9983C64.6143 100.689 78.4129 104.225 87.0939 112.906C95.775 121.587 99.3114 135.386 100.002 156.523Z" fill="white"/>
<path d="M100.002 156.523C100.692 135.386 104.228 121.587 112.909 112.906C121.59 104.225 135.389 100.689 156.527 99.9983C135.389 99.308 121.59 95.7716 112.909 87.0906C104.228 78.4095 100.692 64.6109 100.002 43.4733C99.3114 64.6109 95.775 78.4095 87.0939 87.0906C78.4129 95.7716 64.6143 99.308 43.4767 99.9983C64.6143 100.689 78.4129 104.225 87.0939 112.906C95.775 121.587 99.3114 135.386 100.002 156.523Z" fill="white"/>
</svg>
