<svg width="48" height="88" viewBox="0 0 48 88" fill="none" xmlns="http://www.w3.org/2000/svg">
<path d="M0 24H8C8 25.5759 8.31039 27.1363 8.91345 28.5922C9.5165 30.0481 10.4004 31.371 11.5147 32.4853C12.629 33.5996 13.9519 34.4835 15.4078 35.0866C16.8637 35.6896 18.4241 36 20 36H24V44H28C30.6264 44 33.2272 44.5173 35.6537 45.5224C37.2039 46.1645 38.6636 46.9977 40 48V40C40 38.9494 39.7931 37.9091 39.391 36.9385C38.989 35.9679 38.3997 35.086 37.6569 34.3431C36.914 33.6003 36.0321 33.011 35.0615 32.609C34.0909 32.2069 33.0506 32 32 32H24V24H32C34.1012 24 36.1817 24.4139 38.1229 25.2179C40.0641 26.022 41.828 27.2006 43.3137 28.6863C44.7994 30.172 45.978 31.9359 46.7821 33.8771C47.5862 35.8183 48 37.8988 48 40V64H40C40 62.4241 39.6896 60.8637 39.0866 59.4078C38.4835 57.9519 37.5996 56.629 36.4853 55.5147C35.371 54.4004 34.0481 53.5165 32.5922 52.9134C31.1363 52.3104 29.5759 52 28 52H24V44H20C17.3736 44 14.7728 43.4827 12.3463 42.4776C10.7961 41.8355 9.3364 41.0023 8 40V48C8 49.0506 8.20693 50.0909 8.60896 51.0615C9.011 52.0321 9.60028 52.914 10.3431 53.6569C11.086 54.3997 11.9679 54.989 12.9385 55.391C13.9091 55.7931 14.9494 56 16 56H24V64H16C13.8988 64 11.8183 63.5862 9.87706 62.7821C7.93586 61.978 6.17203 60.7994 4.68629 59.3137C3.20055 57.828 2.022 56.0641 1.21793 54.1229C0.413852 52.1817 0 50.1012 0 48V24Z" fill="white"/>
<path d="M9.87706 1.21793C11.8183 0.413852 13.8988 0 16 0H32C34.1012 0 36.1817 0.413852 38.1229 1.21793C40.0641 2.022 41.828 3.20055 43.3137 4.68629C44.7994 6.17203 45.978 7.93586 46.7821 9.87706C47.5862 11.8183 48 13.8988 48 16H40C40 14.9494 39.7931 13.9091 39.391 12.9385C38.989 11.9679 38.3997 11.086 37.6569 10.3431C36.914 9.60028 36.0321 9.011 35.0615 8.60896C34.0909 8.20693 33.0506 8 32 8L16 8C14.9494 8 13.9091 8.20693 12.9385 8.60896C11.9679 9.011 11.086 9.60028 10.3431 10.3431C9.60028 11.086 9.011 11.9679 8.60896 12.9385C8.20693 13.9091 8 14.9494 8 16H0C0 13.8988 0.413852 11.8183 1.21793 9.87706C2.022 7.93585 3.20055 6.17203 4.68629 4.68629C6.17203 3.20055 7.93586 2.022 9.87706 1.21793Z" fill="white"/>
<path d="M9.87706 86.7821C11.8183 87.5862 13.8988 88 16 88H32C34.1012 88 36.1817 87.5862 38.1229 86.7821C40.0641 85.978 41.828 84.7994 43.3137 83.3137C44.7994 81.828 45.978 80.0641 46.7821 78.1229C47.5862 76.1817 48 74.1012 48 72H40C40 73.0506 39.7931 74.0909 39.391 75.0615C38.989 76.0321 38.3997 76.914 37.6569 77.6569C36.914 78.3997 36.0321 78.989 35.0615 79.391C34.0909 79.7931 33.0506 80 32 80H16C14.9494 80 13.9091 79.7931 12.9385 79.391C11.9679 78.989 11.086 78.3997 10.3431 77.6569C9.60028 76.914 9.011 76.0321 8.60896 75.0615C8.20693 74.0909 8 73.0506 8 72H0C0 74.1012 0.413852 76.1817 1.21793 78.1229C2.022 80.0641 3.20055 81.828 4.68629 83.3137C6.17203 84.7994 7.93586 85.978 9.87706 86.7821Z" fill="white"/>
</svg>
